# xmcd
#
# Track frame offsets: 
#        150
#        20220
#        40492
#        63722
#        81162
#        98420
#        122237
#        143037
#        163930
#        180675
#        197252
#        214747
#        229812
#
# Disc length: 3307 seconds
#
# Revision: 3
# Processed by: cddbd v1.5.1PL0 Copyright (c) Steve Scherf et al.
# Submitted via: ExactAudioCopy v0.95a5
#
DISCID=b80ce90d
DTITLE=Dave Hole - Steel on Steel
DYEAR=1995
DGENRE=Blues
TTITLE0=Wildfire
TTITLE1=Quicksand
TTITLE2=Counting My Regrets
TTITLE3=Killing Bite
TTITLE4=Take Me To Chicago
TTITLE5=I Won't Leave
TTITLE6=Worry
TTITLE7=I Found Love
TTITLE8=Going Down
TTITLE9=One Last Breath
TTITLE10=Hook, Line and Sinker
TTITLE11=Cold Rain
TTITLE12=Blues Will Call Your Name
EXTD=
EXTT0=
EXTT1=
EXTT2=
EXTT3=
EXTT4=
EXTT5=
EXTT6=
EXTT7=
EXTT8=
EXTT9=
EXTT10=
EXTT11=
EXTT12=
PLAYORDER=
